<mxfile host="app.diagrams.net" modified="2021-08-22T15:22:34.278Z" agent="5.0 (Windows NT 10.0; Win64; x64) AppleWebKit/537.36 (KHTML, like Gecko) Chrome/92.0.4515.159 Safari/537.36" etag="oXXte3UruOTl1gNQ8LJJ" version="14.9.8" type="github">
  <diagram id="C5RBs43oDa-KdzZeNtuy" name="Page-1">
    <mxGraphModel dx="1695" dy="1619" grid="1" gridSize="10" guides="1" tooltips="1" connect="1" arrows="1" fold="1" page="1" pageScale="1" pageWidth="827" pageHeight="1169" math="0" shadow="0">
      <root>
        <mxCell id="WIyWlLk6GJQsqaUBKTNV-0" />
        <mxCell id="WIyWlLk6GJQsqaUBKTNV-1" parent="WIyWlLk6GJQsqaUBKTNV-0" />
        <mxCell id="WIyWlLk6GJQsqaUBKTNV-2" value="" style="html=1;jettySize=auto;orthogonalLoop=1;fontSize=11;endArrow=block;endFill=0;endSize=8;strokeWidth=1;shadow=0;labelBackgroundColor=none;edgeStyle=orthogonalEdgeStyle;entryX=0.5;entryY=0.188;entryDx=0;entryDy=0;entryPerimeter=0;" parent="WIyWlLk6GJQsqaUBKTNV-1" target="YShzn4bgvZEt4ahIDl8V-4" edge="1">
          <mxGeometry relative="1" as="geometry">
            <mxPoint x="220" y="120" as="sourcePoint" />
            <mxPoint x="220" y="170" as="targetPoint" />
          </mxGeometry>
        </mxCell>
        <mxCell id="YShzn4bgvZEt4ahIDl8V-1" value="" style="edgeStyle=orthogonalEdgeStyle;rounded=0;orthogonalLoop=1;jettySize=auto;html=1;" edge="1" parent="WIyWlLk6GJQsqaUBKTNV-1" source="YShzn4bgvZEt4ahIDl8V-0">
          <mxGeometry relative="1" as="geometry">
            <mxPoint x="220" y="80" as="targetPoint" />
          </mxGeometry>
        </mxCell>
        <mxCell id="YShzn4bgvZEt4ahIDl8V-0" value="Início - Adicionar o&lt;br&gt;evento" style="ellipse;whiteSpace=wrap;html=1;fillColor=#fff2cc;strokeColor=#d6b656;" vertex="1" parent="WIyWlLk6GJQsqaUBKTNV-1">
          <mxGeometry x="160" y="-40" width="120" height="80" as="geometry" />
        </mxCell>
        <mxCell id="YShzn4bgvZEt4ahIDl8V-3" value="&amp;nbsp; &amp;nbsp; &amp;nbsp;Digitar o nome do&lt;br&gt;evento" style="shape=display;whiteSpace=wrap;html=1;shadow=1;glass=0;sketch=0;" vertex="1" parent="WIyWlLk6GJQsqaUBKTNV-1">
          <mxGeometry x="140" y="80" width="140" height="50" as="geometry" />
        </mxCell>
        <mxCell id="YShzn4bgvZEt4ahIDl8V-7" style="edgeStyle=orthogonalEdgeStyle;rounded=0;orthogonalLoop=1;jettySize=auto;html=1;" edge="1" parent="WIyWlLk6GJQsqaUBKTNV-1" source="YShzn4bgvZEt4ahIDl8V-4">
          <mxGeometry relative="1" as="geometry">
            <mxPoint x="220" y="300" as="targetPoint" />
          </mxGeometry>
        </mxCell>
        <mxCell id="YShzn4bgvZEt4ahIDl8V-4" value="Nome do Evento" style="shape=manualInput;whiteSpace=wrap;html=1;shadow=1;glass=0;sketch=0;" vertex="1" parent="WIyWlLk6GJQsqaUBKTNV-1">
          <mxGeometry x="160" y="170" width="120" height="80" as="geometry" />
        </mxCell>
        <mxCell id="YShzn4bgvZEt4ahIDl8V-12" value="" style="edgeStyle=orthogonalEdgeStyle;rounded=0;orthogonalLoop=1;jettySize=auto;html=1;" edge="1" parent="WIyWlLk6GJQsqaUBKTNV-1" source="YShzn4bgvZEt4ahIDl8V-5">
          <mxGeometry relative="1" as="geometry">
            <mxPoint y="360" as="targetPoint" />
            <Array as="points">
              <mxPoint y="340" />
            </Array>
          </mxGeometry>
        </mxCell>
        <mxCell id="YShzn4bgvZEt4ahIDl8V-17" value="" style="edgeStyle=orthogonalEdgeStyle;rounded=0;orthogonalLoop=1;jettySize=auto;html=1;entryX=0.5;entryY=0.15;entryDx=0;entryDy=0;entryPerimeter=0;" edge="1" parent="WIyWlLk6GJQsqaUBKTNV-1" source="YShzn4bgvZEt4ahIDl8V-5" target="YShzn4bgvZEt4ahIDl8V-15">
          <mxGeometry relative="1" as="geometry">
            <Array as="points">
              <mxPoint x="430" y="330" />
            </Array>
          </mxGeometry>
        </mxCell>
        <mxCell id="YShzn4bgvZEt4ahIDl8V-21" value="" style="edgeStyle=orthogonalEdgeStyle;rounded=0;orthogonalLoop=1;jettySize=auto;html=1;" edge="1" parent="WIyWlLk6GJQsqaUBKTNV-1" source="YShzn4bgvZEt4ahIDl8V-5" target="YShzn4bgvZEt4ahIDl8V-18">
          <mxGeometry relative="1" as="geometry">
            <Array as="points">
              <mxPoint x="220" y="400" />
              <mxPoint x="220" y="400" />
            </Array>
          </mxGeometry>
        </mxCell>
        <mxCell id="YShzn4bgvZEt4ahIDl8V-5" value="Digitar data do evento" style="shape=display;whiteSpace=wrap;html=1;shadow=1;glass=0;sketch=0;" vertex="1" parent="WIyWlLk6GJQsqaUBKTNV-1">
          <mxGeometry x="130" y="310" width="150" height="60" as="geometry" />
        </mxCell>
        <mxCell id="YShzn4bgvZEt4ahIDl8V-20" value="" style="edgeStyle=orthogonalEdgeStyle;rounded=0;orthogonalLoop=1;jettySize=auto;html=1;" edge="1" parent="WIyWlLk6GJQsqaUBKTNV-1" source="YShzn4bgvZEt4ahIDl8V-13" target="YShzn4bgvZEt4ahIDl8V-18">
          <mxGeometry relative="1" as="geometry">
            <Array as="points">
              <mxPoint x="105" y="400" />
              <mxPoint x="105" y="410" />
              <mxPoint x="220" y="410" />
            </Array>
          </mxGeometry>
        </mxCell>
        <mxCell id="YShzn4bgvZEt4ahIDl8V-13" value="Data do evento" style="shape=manualInput;whiteSpace=wrap;html=1;shadow=1;glass=0;sketch=0;" vertex="1" parent="WIyWlLk6GJQsqaUBKTNV-1">
          <mxGeometry x="-40" y="360" width="80" height="80" as="geometry" />
        </mxCell>
        <mxCell id="YShzn4bgvZEt4ahIDl8V-22" value="" style="edgeStyle=orthogonalEdgeStyle;rounded=0;orthogonalLoop=1;jettySize=auto;html=1;entryX=0.5;entryY=0;entryDx=0;entryDy=0;entryPerimeter=0;" edge="1" parent="WIyWlLk6GJQsqaUBKTNV-1" source="YShzn4bgvZEt4ahIDl8V-15" target="YShzn4bgvZEt4ahIDl8V-18">
          <mxGeometry relative="1" as="geometry">
            <mxPoint x="220" y="410" as="targetPoint" />
            <Array as="points">
              <mxPoint x="305" y="380" />
              <mxPoint x="305" y="410" />
              <mxPoint x="220" y="410" />
            </Array>
          </mxGeometry>
        </mxCell>
        <mxCell id="YShzn4bgvZEt4ahIDl8V-15" value="Data atual" style="shape=manualInput;whiteSpace=wrap;html=1;shadow=1;glass=0;sketch=0;" vertex="1" parent="WIyWlLk6GJQsqaUBKTNV-1">
          <mxGeometry x="390" y="340" width="80" height="80" as="geometry" />
        </mxCell>
        <mxCell id="YShzn4bgvZEt4ahIDl8V-24" value="" style="edgeStyle=orthogonalEdgeStyle;rounded=0;orthogonalLoop=1;jettySize=auto;html=1;" edge="1" parent="WIyWlLk6GJQsqaUBKTNV-1" source="YShzn4bgvZEt4ahIDl8V-18">
          <mxGeometry relative="1" as="geometry">
            <mxPoint x="400" y="510" as="targetPoint" />
          </mxGeometry>
        </mxCell>
        <mxCell id="YShzn4bgvZEt4ahIDl8V-26" value="" style="edgeStyle=orthogonalEdgeStyle;rounded=0;orthogonalLoop=1;jettySize=auto;html=1;" edge="1" parent="WIyWlLk6GJQsqaUBKTNV-1" source="YShzn4bgvZEt4ahIDl8V-18">
          <mxGeometry relative="1" as="geometry">
            <mxPoint x="40" y="510" as="targetPoint" />
          </mxGeometry>
        </mxCell>
        <mxCell id="YShzn4bgvZEt4ahIDl8V-18" value="Se a data do evento &amp;gt; data atual" style="strokeWidth=2;html=1;shape=mxgraph.flowchart.decision;whiteSpace=wrap;shadow=1;glass=0;sketch=0;" vertex="1" parent="WIyWlLk6GJQsqaUBKTNV-1">
          <mxGeometry x="170" y="460" width="100" height="100" as="geometry" />
        </mxCell>
        <mxCell id="YShzn4bgvZEt4ahIDl8V-27" value="sim" style="text;html=1;align=center;verticalAlign=middle;resizable=0;points=[];autosize=1;strokeColor=none;" vertex="1" parent="WIyWlLk6GJQsqaUBKTNV-1">
          <mxGeometry x="95" y="480" width="30" height="20" as="geometry" />
        </mxCell>
        <mxCell id="YShzn4bgvZEt4ahIDl8V-29" value="não" style="text;html=1;align=center;verticalAlign=middle;resizable=0;points=[];autosize=1;strokeColor=none;" vertex="1" parent="WIyWlLk6GJQsqaUBKTNV-1">
          <mxGeometry x="320" y="480" width="40" height="20" as="geometry" />
        </mxCell>
        <mxCell id="YShzn4bgvZEt4ahIDl8V-37" value="" style="edgeStyle=orthogonalEdgeStyle;rounded=0;orthogonalLoop=1;jettySize=auto;html=1;" edge="1" parent="WIyWlLk6GJQsqaUBKTNV-1" source="YShzn4bgvZEt4ahIDl8V-30" target="YShzn4bgvZEt4ahIDl8V-35">
          <mxGeometry relative="1" as="geometry" />
        </mxCell>
        <mxCell id="YShzn4bgvZEt4ahIDl8V-30" value="Digitar o nome do participante" style="shape=display;whiteSpace=wrap;html=1;shadow=1;glass=0;sketch=0;" vertex="1" parent="WIyWlLk6GJQsqaUBKTNV-1">
          <mxGeometry x="-110" y="486" width="150" height="60" as="geometry" />
        </mxCell>
        <mxCell id="YShzn4bgvZEt4ahIDl8V-78" value="" style="edgeStyle=orthogonalEdgeStyle;rounded=0;orthogonalLoop=1;jettySize=auto;html=1;" edge="1" parent="WIyWlLk6GJQsqaUBKTNV-1" source="YShzn4bgvZEt4ahIDl8V-32">
          <mxGeometry relative="1" as="geometry">
            <mxPoint x="540" y="1402" as="targetPoint" />
          </mxGeometry>
        </mxCell>
        <mxCell id="YShzn4bgvZEt4ahIDl8V-32" value="Alerta: Data inválida" style="shape=display;whiteSpace=wrap;html=1;shadow=1;glass=0;sketch=0;" vertex="1" parent="WIyWlLk6GJQsqaUBKTNV-1">
          <mxGeometry x="400" y="480" width="150" height="60" as="geometry" />
        </mxCell>
        <mxCell id="YShzn4bgvZEt4ahIDl8V-40" value="" style="edgeStyle=orthogonalEdgeStyle;rounded=0;orthogonalLoop=1;jettySize=auto;html=1;" edge="1" parent="WIyWlLk6GJQsqaUBKTNV-1" source="YShzn4bgvZEt4ahIDl8V-35" target="YShzn4bgvZEt4ahIDl8V-38">
          <mxGeometry relative="1" as="geometry" />
        </mxCell>
        <mxCell id="YShzn4bgvZEt4ahIDl8V-35" value="Nome" style="shape=manualInput;whiteSpace=wrap;html=1;shadow=1;glass=0;sketch=0;" vertex="1" parent="WIyWlLk6GJQsqaUBKTNV-1">
          <mxGeometry x="-75" y="585" width="80" height="65" as="geometry" />
        </mxCell>
        <mxCell id="YShzn4bgvZEt4ahIDl8V-42" value="" style="edgeStyle=orthogonalEdgeStyle;rounded=0;orthogonalLoop=1;jettySize=auto;html=1;" edge="1" parent="WIyWlLk6GJQsqaUBKTNV-1" source="YShzn4bgvZEt4ahIDl8V-38" target="YShzn4bgvZEt4ahIDl8V-41">
          <mxGeometry relative="1" as="geometry" />
        </mxCell>
        <mxCell id="YShzn4bgvZEt4ahIDl8V-38" value="Digite a idade do participante" style="shape=display;whiteSpace=wrap;html=1;shadow=1;glass=0;sketch=0;" vertex="1" parent="WIyWlLk6GJQsqaUBKTNV-1">
          <mxGeometry x="-92.5" y="710" width="115" height="50" as="geometry" />
        </mxCell>
        <mxCell id="YShzn4bgvZEt4ahIDl8V-44" value="" style="edgeStyle=orthogonalEdgeStyle;rounded=0;orthogonalLoop=1;jettySize=auto;html=1;" edge="1" parent="WIyWlLk6GJQsqaUBKTNV-1" source="YShzn4bgvZEt4ahIDl8V-41" target="YShzn4bgvZEt4ahIDl8V-43">
          <mxGeometry relative="1" as="geometry" />
        </mxCell>
        <mxCell id="YShzn4bgvZEt4ahIDl8V-41" value="Idade" style="shape=manualInput;whiteSpace=wrap;html=1;shadow=1;glass=0;sketch=0;" vertex="1" parent="WIyWlLk6GJQsqaUBKTNV-1">
          <mxGeometry x="-75" y="810" width="80" height="80" as="geometry" />
        </mxCell>
        <mxCell id="YShzn4bgvZEt4ahIDl8V-46" value="" style="edgeStyle=orthogonalEdgeStyle;rounded=0;orthogonalLoop=1;jettySize=auto;html=1;" edge="1" parent="WIyWlLk6GJQsqaUBKTNV-1" source="YShzn4bgvZEt4ahIDl8V-43">
          <mxGeometry relative="1" as="geometry">
            <mxPoint x="210" y="710" as="targetPoint" />
          </mxGeometry>
        </mxCell>
        <mxCell id="YShzn4bgvZEt4ahIDl8V-52" value="" style="edgeStyle=orthogonalEdgeStyle;rounded=0;orthogonalLoop=1;jettySize=auto;html=1;" edge="1" parent="WIyWlLk6GJQsqaUBKTNV-1" source="YShzn4bgvZEt4ahIDl8V-43">
          <mxGeometry relative="1" as="geometry">
            <mxPoint x="125" y="980" as="targetPoint" />
          </mxGeometry>
        </mxCell>
        <mxCell id="YShzn4bgvZEt4ahIDl8V-43" value="Idade &lt;br&gt;&amp;gt; 18 anos" style="rhombus;whiteSpace=wrap;html=1;shadow=1;glass=0;sketch=0;" vertex="1" parent="WIyWlLk6GJQsqaUBKTNV-1">
          <mxGeometry x="85" y="810" width="80" height="80" as="geometry" />
        </mxCell>
        <mxCell id="YShzn4bgvZEt4ahIDl8V-76" value="" style="edgeStyle=orthogonalEdgeStyle;rounded=0;orthogonalLoop=1;jettySize=auto;html=1;" edge="1" parent="WIyWlLk6GJQsqaUBKTNV-1" source="YShzn4bgvZEt4ahIDl8V-47">
          <mxGeometry relative="1" as="geometry">
            <mxPoint x="510" y="1402" as="targetPoint" />
          </mxGeometry>
        </mxCell>
        <mxCell id="YShzn4bgvZEt4ahIDl8V-47" value="&amp;nbsp; &amp;nbsp;Exibir: Idade não permitida" style="shape=display;whiteSpace=wrap;html=1;shadow=1;glass=0;sketch=0;" vertex="1" parent="WIyWlLk6GJQsqaUBKTNV-1">
          <mxGeometry x="160" y="660" width="100" height="40" as="geometry" />
        </mxCell>
        <mxCell id="YShzn4bgvZEt4ahIDl8V-50" value="Não" style="text;html=1;align=center;verticalAlign=middle;resizable=0;points=[];autosize=1;strokeColor=none;" vertex="1" parent="WIyWlLk6GJQsqaUBKTNV-1">
          <mxGeometry x="180" y="780" width="40" height="20" as="geometry" />
        </mxCell>
        <mxCell id="YShzn4bgvZEt4ahIDl8V-56" value="" style="edgeStyle=orthogonalEdgeStyle;rounded=0;orthogonalLoop=1;jettySize=auto;html=1;" edge="1" parent="WIyWlLk6GJQsqaUBKTNV-1">
          <mxGeometry relative="1" as="geometry">
            <mxPoint x="125" y="1030" as="sourcePoint" />
            <mxPoint x="125" y="1120" as="targetPoint" />
          </mxGeometry>
        </mxCell>
        <mxCell id="YShzn4bgvZEt4ahIDl8V-54" value="Sim" style="text;html=1;align=center;verticalAlign=middle;resizable=0;points=[];autosize=1;strokeColor=none;" vertex="1" parent="WIyWlLk6GJQsqaUBKTNV-1">
          <mxGeometry x="120" y="920" width="40" height="20" as="geometry" />
        </mxCell>
        <mxCell id="YShzn4bgvZEt4ahIDl8V-59" value="" style="edgeStyle=orthogonalEdgeStyle;rounded=0;orthogonalLoop=1;jettySize=auto;html=1;" edge="1" parent="WIyWlLk6GJQsqaUBKTNV-1" source="YShzn4bgvZEt4ahIDl8V-57" target="YShzn4bgvZEt4ahIDl8V-58">
          <mxGeometry relative="1" as="geometry" />
        </mxCell>
        <mxCell id="YShzn4bgvZEt4ahIDl8V-57" value="Número de&lt;br&gt;participantes" style="shape=manualInput;whiteSpace=wrap;html=1;shadow=1;glass=0;sketch=0;" vertex="1" parent="WIyWlLk6GJQsqaUBKTNV-1">
          <mxGeometry x="75" y="1120" width="80" height="80" as="geometry" />
        </mxCell>
        <mxCell id="YShzn4bgvZEt4ahIDl8V-61" value="" style="edgeStyle=orthogonalEdgeStyle;rounded=0;orthogonalLoop=1;jettySize=auto;html=1;" edge="1" parent="WIyWlLk6GJQsqaUBKTNV-1" source="YShzn4bgvZEt4ahIDl8V-58">
          <mxGeometry relative="1" as="geometry">
            <mxPoint x="320" y="1050" as="targetPoint" />
          </mxGeometry>
        </mxCell>
        <mxCell id="YShzn4bgvZEt4ahIDl8V-64" value="" style="edgeStyle=orthogonalEdgeStyle;rounded=0;orthogonalLoop=1;jettySize=auto;html=1;" edge="1" parent="WIyWlLk6GJQsqaUBKTNV-1" source="YShzn4bgvZEt4ahIDl8V-58">
          <mxGeometry relative="1" as="geometry">
            <mxPoint x="320" y="1290" as="targetPoint" />
          </mxGeometry>
        </mxCell>
        <mxCell id="YShzn4bgvZEt4ahIDl8V-58" value="&lt;font style=&quot;font-size: 10px&quot;&gt;Se número de participantes&amp;nbsp;&lt;br&gt;&amp;gt; 100&lt;/font&gt;" style="rhombus;whiteSpace=wrap;html=1;shadow=1;glass=0;sketch=0;" vertex="1" parent="WIyWlLk6GJQsqaUBKTNV-1">
          <mxGeometry x="260" y="1120" width="120" height="80" as="geometry" />
        </mxCell>
        <mxCell id="YShzn4bgvZEt4ahIDl8V-62" value="&amp;nbsp; &amp;nbsp; &amp;nbsp;Excedido o limite de participantes&amp;nbsp;" style="shape=display;whiteSpace=wrap;html=1;shadow=1;glass=0;sketch=0;" vertex="1" parent="WIyWlLk6GJQsqaUBKTNV-1">
          <mxGeometry x="260" y="990" width="120" height="50" as="geometry" />
        </mxCell>
        <mxCell id="YShzn4bgvZEt4ahIDl8V-69" value="" style="edgeStyle=orthogonalEdgeStyle;rounded=0;orthogonalLoop=1;jettySize=auto;html=1;" edge="1" parent="WIyWlLk6GJQsqaUBKTNV-1" source="YShzn4bgvZEt4ahIDl8V-65" target="YShzn4bgvZEt4ahIDl8V-68">
          <mxGeometry relative="1" as="geometry" />
        </mxCell>
        <mxCell id="YShzn4bgvZEt4ahIDl8V-65" value="Cadastro realizado com sucesso!" style="shape=display;whiteSpace=wrap;html=1;shadow=1;glass=0;sketch=0;" vertex="1" parent="WIyWlLk6GJQsqaUBKTNV-1">
          <mxGeometry x="230" y="1300" width="160" height="40" as="geometry" />
        </mxCell>
        <mxCell id="YShzn4bgvZEt4ahIDl8V-66" value="Não" style="text;html=1;align=center;verticalAlign=middle;resizable=0;points=[];autosize=1;strokeColor=none;" vertex="1" parent="WIyWlLk6GJQsqaUBKTNV-1">
          <mxGeometry x="310" y="1240" width="40" height="20" as="geometry" />
        </mxCell>
        <mxCell id="YShzn4bgvZEt4ahIDl8V-67" value="Sim" style="text;html=1;align=center;verticalAlign=middle;resizable=0;points=[];autosize=1;strokeColor=none;" vertex="1" parent="WIyWlLk6GJQsqaUBKTNV-1">
          <mxGeometry x="310" y="1080" width="40" height="20" as="geometry" />
        </mxCell>
        <mxCell id="YShzn4bgvZEt4ahIDl8V-74" value="" style="edgeStyle=orthogonalEdgeStyle;rounded=0;orthogonalLoop=1;jettySize=auto;html=1;" edge="1" parent="WIyWlLk6GJQsqaUBKTNV-1" source="YShzn4bgvZEt4ahIDl8V-68" target="YShzn4bgvZEt4ahIDl8V-73">
          <mxGeometry relative="1" as="geometry" />
        </mxCell>
        <mxCell id="YShzn4bgvZEt4ahIDl8V-68" value="Exibir a lista de&amp;nbsp;&lt;br&gt;palestrantes" style="shape=parallelogram;perimeter=parallelogramPerimeter;whiteSpace=wrap;html=1;fixedSize=1;shadow=1;glass=0;sketch=0;" vertex="1" parent="WIyWlLk6GJQsqaUBKTNV-1">
          <mxGeometry x="250" y="1410" width="120" height="60" as="geometry" />
        </mxCell>
        <mxCell id="YShzn4bgvZEt4ahIDl8V-72" value="&lt;span style=&quot;font-size: 11px&quot;&gt;Verificar número de&lt;/span&gt;&lt;br style=&quot;font-size: 11px&quot;&gt;&lt;span style=&quot;font-size: 11px&quot;&gt;&amp;nbsp; &amp;nbsp; &amp;nbsp;participantes inscritos&lt;/span&gt;" style="rounded=0;whiteSpace=wrap;html=1;shadow=1;glass=0;sketch=0;" vertex="1" parent="WIyWlLk6GJQsqaUBKTNV-1">
          <mxGeometry x="65" y="980" width="120" height="50" as="geometry" />
        </mxCell>
        <mxCell id="YShzn4bgvZEt4ahIDl8V-73" value="Fim" style="ellipse;whiteSpace=wrap;html=1;shadow=1;glass=0;sketch=0;fillColor=#fff2cc;strokeColor=#d6b656;" vertex="1" parent="WIyWlLk6GJQsqaUBKTNV-1">
          <mxGeometry x="450" y="1410" width="120" height="60" as="geometry" />
        </mxCell>
      </root>
    </mxGraphModel>
  </diagram>
</mxfile>
